<svg xmlns="http://www.w3.org/2000/svg" width="239" height="62" viewBox="0 0 239 62"><g><g><g><g><path fill="#fff" d="M8.947 14.268V47.57H.74V14.268zm.74-9.218c0 6.392-9.687 6.392-9.687 0"/></g><g><path fill="#fff" d="M40.77 47.571V30.213c0-5.046-2.758-8.88-8.006-8.88-5.047 0-8.477 4.237-8.477 9.284V47.57h-8.14V14.335h7.332l.539 4.508c3.363-3.297 6.727-4.98 10.9-4.98 7.803 0 14.06 5.854 14.06 16.283V47.57z"/></g><g><path fill="#fff" d="M64.048.543v27.18l11.17-13.32h9.822v.47L71.517 30.011l15.406 16.955v.605h-9.89L64.048 32.568V47.57H55.84V.543z"/></g><g><path fill="#fff" d="M125.543 14.402l-20.252 47.029h-9.016l6.19-14.398-13.254-32.63h9.554l5.046 14.33 3.161 9.352 3.432-9.15 6.056-14.533z"/></g><g><path fill="#fff" d="M164.724 14.402l-20.252 47.029h-9.016l6.19-14.398-13.254-32.63h9.554l5.045 14.33 3.163 9.352 3.431-9.15 6.056-14.533z"/></g><g><path fill="#fff" d="M166.088 45.65c0 3.569-5.411 3.569-5.411 0"/></g><g><path fill="#fff" d="M186.017 45.65c-2.142 2.104-4.396 2.93-7.14 2.93-5.373 0-9.845-3.231-9.845-9.807 0-6.576 4.472-9.808 9.845-9.808 2.63 0 4.66.751 6.689 2.743l-2.893 3.044c-1.09-.977-2.443-1.465-3.72-1.465-3.081 0-5.336 2.254-5.336 5.486 0 3.532 2.405 5.41 5.26 5.41 1.465 0 2.932-.412 4.059-1.54z"/></g><g><path fill="#fff" d="M197.177 33.287c3.082 0 5.036 2.705 5.036 5.486 0 2.818-1.691 5.449-5.036 5.449-3.344 0-5.035-2.63-5.035-5.45 0-2.78 1.728-5.485 5.035-5.485zm9.658 5.486c0-5.299-3.796-9.658-9.695-9.658-5.9 0-9.583 4.36-9.583 9.658 0 5.336 3.608 9.657 9.62 9.657 6.013 0 9.658-4.321 9.658-9.657z"/></g><g><path fill="#fff" d="M222.316 48.017v-9.92c0-2.443-1.277-4.66-3.796-4.66-2.48 0-3.946 2.217-3.946 4.66v9.92h-4.583V29.453h4.246l.337 2.255c.978-1.879 3.12-2.555 4.886-2.555 2.217 0 4.435.902 5.486 3.457 1.654-2.63 3.795-3.382 6.2-3.382 5.261 0 7.854 3.232 7.854 8.793v9.996h-4.584v-9.996c0-2.442-1.015-4.51-3.495-4.51-2.48 0-4.021 2.143-4.021 4.585v9.921z"/></g></g></g></g></svg>