<svg xmlns="http://www.w3.org/2000/svg" width="2012" height="1250" viewBox="0 0 2012 1250"><g><g><path fill="#0e77ff" d="M8 0h1920v1186L8 1220z"/></g><g><path fill="#fff" d="M1425.392 1071.13C1166.441 993.654 1261.476 753.926 1268 736.333l-46-26.666C751.843 1262.653 0 861.13 0 861.13v388h1928v-370s-235.222 272-502.608 192z"/></g><g><path fill="#209cd9" d="M1238.09 508.154l-45.693 26.38v-52.76z"/></g><g><path fill="#209cd9" d="M1033.724 357.998L1006.8 337.71l31.031-13.172z"/></g><g><path fill="#209cd9" d="M1462.467 967.41l-22.275 5.969 5.968-22.276z"/></g><g><path fill="#fff" d="M1688 385.154v52.76l-45.692-26.38z"/></g><g><path fill="#fff" d="M1132.732 242.763l-27.276 21.31-4.818-34.277z"/></g><g><path fill="#68bae5" d="M1004.936 778.995l-52.367 6.43 20.615-48.566z"/></g><g><path fill="#a7d3ec" d="M1708.517 834.27l-39.373 25.57-2.457-46.883z"/></g><g><path fill="#68bae5" d="M2011.507 742.292L1688 702.57l196.153-260.304z"/></g><g><path fill="#68bae5" d="M639.474 860.518L760.24 759.183l27.375 155.256z"/></g><g><path fill="none" stroke="#209cd9" stroke-miterlimit="20" d="M1681.561 1029.795v0l-141.869-7.435v0l77.374-119.145v0z"/></g><g><path fill="none" stroke="#209cd9" stroke-miterlimit="20" d="M1552.689 713.597v0L1548 624.135v0l79.821 40.67v0z"/></g><g><path fill="none" stroke="#209cd9" stroke-miterlimit="20" d="M1035.523 588.597v0l-4.689-89.462v0l79.822 40.67v0z"/></g><g><path fill="#a7d3ec" d="M1260.795 335.431l-32.482 41.576-19.765-48.918z"/></g><g><path fill="#fff" d="M1372.47 625.537c162.364-168.451 108.642-290.212 92.82-317.826-31.74 2.325-162.724 25.876-211.587 254.676 0 0-124.919-35.951-144.227 167.065l10.797 5.74s35.267-97.584 107.212-87.029l-12.44 59.863 6.477 3.445-4.73 14.104 20.515 10.908 20.514 10.907 9.05-11.808 6.477 3.445 42.672-43.789c48.982 53.743-12.198 137.55-12.198 137.55l10.797 5.74c157.51-129.532 57.852-212.991 57.852-212.991z"/></g><g><path fill="#68bae5" d="M1486.423 387.85c-1.377-40.766-14.54-68.63-21.13-80.137-13.228.97-43.689 5.638-78.256 27.292z"/></g><g><path fill="#0e77ff" d="M1302 527c0-23.196 18.804-42 42-42s42 18.804 42 42-18.804 42-42 42-42-18.804-42-42z"/></g></g></svg>