<svg xmlns="http://www.w3.org/2000/svg" width="2070" height="804" viewBox="0 0 2070 804"><g><g><path fill="none" stroke="#0e77ff" stroke-dasharray="10 10" stroke-miterlimit="20" d="M1.576 203.665v0s263.821 264.567 479.203 304.253c-2.367 4.41 426.028 145.513 684.012-246.93 0-2.205 227.214-306.458 551.468-253.544-2.366 2.205 359.758 33.07 343.19 354.961C2061.814 357.996 2144 865 1792 777"/></g><g><g><g><path fill="#68bae5" d="M1842.3 707.438l-108.267 10.1a141866845.25 141866845.25 0 0 1-211.7 19.749l254.58 15.516z"/></g><g><path fill="#209cd9" d="M1776.917 752.81l-13.107 48.347-241.476-63.87z"/></g><g><g><path fill="#a7d3ec" d="M1522.335 737.287l194.437 36.989-67.885 29.644z"/></g><g><path fill="#68bae5" d="M1716.748 774.242l47.065 26.917-68.779-17.435z"/></g></g></g></g><g><g><g/></g></g><g><g><g/></g></g><g/></g></svg>