<svg xmlns="http://www.w3.org/2000/svg" width="210" height="275" viewBox="0 0 210 275"><g><g><path fill="#fff" d="M142.883 8.897c.61-.901.966-1.985.966-3.155 0-1.17-.357-2.253-.966-3.155A5.636 5.636 0 0 0 138.206.1h-.003a5.641 5.641 0 0 0-3.155.962 5.642 5.642 0 0 0-2.485 4.68c0 1.95.987 3.667 2.485 4.68a5.641 5.641 0 0 0 3.155.963h.003a5.636 5.636 0 0 0 4.677-2.488z"/></g><g><path fill="#fff" d="M110.893 5.742a5.642 5.642 0 1 0-5.643 5.643 5.644 5.644 0 0 0 5.643-5.643z"/></g><g><path fill="#fff" d="M77.938 5.742a5.644 5.644 0 0 0-11.286 0 5.644 5.644 0 0 0 5.643 5.643 5.644 5.644 0 0 0 5.643-5.643z"/></g><g><path fill="#fff" d="M44.983 5.742a5.642 5.642 0 1 0-11.286 0 5.642 5.642 0 1 0 11.286 0z"/></g><g><path fill="#fff" d="M12.03 5.742a5.645 5.645 0 0 0-11.288 0 5.644 5.644 0 0 0 11.288 0z"/></g><g><path fill="#fff" d="M209.756 5.742A5.644 5.644 0 0 0 204.114.1a5.644 5.644 0 0 0-5.643 5.642 5.644 5.644 0 0 0 5.643 5.643 5.644 5.644 0 0 0 5.642-5.643z"/></g><g><path fill="#fff" d="M176.8 5.742a5.642 5.642 0 1 0-11.285 0 5.642 5.642 0 1 0 11.286 0z"/></g><g><path fill="#fff" d="M141.36 43.375a5.657 5.657 0 0 0 2.373-3.541 5.612 5.612 0 0 0-.85-4.29 5.636 5.636 0 0 0-4.677-2.49h-.003a5.618 5.618 0 0 0-3.155.963 5.642 5.642 0 0 0-2.485 4.68c0 .39.037.771.113 1.137a5.645 5.645 0 0 0 5.527 4.506h.003a5.62 5.62 0 0 0 3.155-.965z"/></g><g><path fill="#fff" d="M142.883 74.808a5.62 5.62 0 0 0 .966-3.155c0-1.17-.357-2.257-.966-3.155a5.636 5.636 0 0 0-4.677-2.488h-.003a5.618 5.618 0 0 0-3.155.962 5.643 5.643 0 0 0-2.485 4.681 5.641 5.641 0 0 0 5.64 5.643h.003a5.635 5.635 0 0 0 4.677-2.488z"/></g><g><path fill="#fff" d="M142.883 107.76c.61-.898.966-1.985.966-3.154a5.62 5.62 0 0 0-.966-3.155 5.636 5.636 0 0 0-4.677-2.488h-.003a5.64 5.64 0 0 0-5.64 5.643c0 1.948.987 3.666 2.485 4.68.901.609 1.988.962 3.155.962h.003a5.636 5.636 0 0 0 4.677-2.487z"/></g><g><path fill="#fff" d="M142.883 140.716c.61-.902.966-1.986.966-3.155 0-1.17-.357-2.254-.966-3.155a5.636 5.636 0 0 0-4.677-2.488h-.003a5.64 5.64 0 0 0-5.64 5.643c0 1.949.987 3.666 2.485 4.68.901.61 1.988.962 3.155.962h.003a5.636 5.636 0 0 0 4.677-2.487z"/></g><g><path fill="#fff" d="M142.883 173.671c.61-.901.966-1.985.966-3.155 0-1.169-.357-2.253-.966-3.155a5.636 5.636 0 0 0-4.677-2.488h-.003a5.641 5.641 0 0 0-3.155.963 5.643 5.643 0 0 0-2.485 4.68c0 1.95.987 3.667 2.485 4.68a5.643 5.643 0 0 0 3.155.963h.003a5.636 5.636 0 0 0 4.677-2.488z"/></g><g><path fill="#fff" d="M142.883 206.626c.61-.901.966-1.985.966-3.154 0-1.17-.357-2.257-.966-3.155a5.636 5.636 0 0 0-4.677-2.488h-.003a5.62 5.62 0 0 0-3.155.962 5.643 5.643 0 0 0-2.485 4.68 5.641 5.641 0 0 0 5.64 5.643h.003a5.636 5.636 0 0 0 4.677-2.488z"/></g><g><path fill="#fff" d="M142.883 239.582a5.62 5.62 0 0 0 .966-3.155c0-1.17-.357-2.256-.966-3.158a5.637 5.637 0 0 0-4.677-2.488h-.003a5.643 5.643 0 0 0-5.64 5.646 5.641 5.641 0 0 0 5.64 5.643h.003c1.946 0 3.663-.99 4.677-2.488z"/></g><g><path fill="#fff" d="M142.883 272.534c.61-.898.966-1.985.966-3.155a5.622 5.622 0 0 0-.966-3.155 5.636 5.636 0 0 0-4.677-2.488h-.003a5.642 5.642 0 0 0-5.64 5.642c0 1.95.987 3.667 2.485 4.681.901.61 1.988.963 3.155.963h.003a5.636 5.636 0 0 0 4.677-2.488z"/></g><g><path fill="#fff" d="M110.778 39.834a5.642 5.642 0 0 0-5.527-6.779 5.64 5.64 0 0 0-5.643 5.643c0 .39.04.77.112 1.136a5.636 5.636 0 0 0 2.376 3.541c.901.61 1.985.965 3.154.965a5.644 5.644 0 0 0 5.527-4.507z"/></g><g><path fill="#fff" d="M110.893 71.653a5.642 5.642 0 0 0-5.643-5.643 5.64 5.64 0 0 0-5.642 5.643 5.642 5.642 0 1 0 11.285 0z"/></g><g><path fill="#fff" d="M110.893 104.606a5.642 5.642 0 1 0-11.286-.001 5.642 5.642 0 0 0 11.286 0z"/></g><g><path fill="#fff" d="M110.893 137.56a5.642 5.642 0 1 0-11.286 0 5.64 5.64 0 0 0 5.643 5.643 5.642 5.642 0 0 0 5.643-5.642z"/></g><g><path fill="#fff" d="M110.893 170.516a5.642 5.642 0 1 0-11.286-.001 5.642 5.642 0 0 0 11.286.001z"/></g><g><path fill="#fff" d="M110.893 203.472a5.642 5.642 0 0 0-5.643-5.643 5.64 5.64 0 0 0-5.642 5.643 5.642 5.642 0 1 0 11.285 0z"/></g><g><path fill="#fff" d="M110.893 236.427a5.643 5.643 0 0 0-11.286 0 5.642 5.642 0 1 0 11.286 0z"/></g><g><path fill="#fff" d="M110.893 269.379a5.644 5.644 0 0 0-11.285 0 5.64 5.64 0 0 0 5.642 5.643 5.642 5.642 0 0 0 5.643-5.643z"/></g><g><path fill="#fff" d="M77.822 39.834a5.642 5.642 0 1 0 0 0z"/></g><g><path fill="#fff" d="M77.938 71.653a5.642 5.642 0 0 0-5.643-5.643 5.642 5.642 0 1 0 0 11.286 5.644 5.644 0 0 0 5.643-5.643z"/></g><g><path fill="#fff" d="M77.938 104.606a5.644 5.644 0 0 0-5.643-5.643 5.642 5.642 0 1 0 0 11.285 5.642 5.642 0 0 0 5.643-5.642z"/></g><g><path fill="#fff" d="M77.938 137.56a5.644 5.644 0 0 0-5.643-5.642 5.642 5.642 0 1 0 0 11.286 5.642 5.642 0 0 0 5.643-5.643z"/></g><g><path fill="#fff" d="M77.938 170.516a5.644 5.644 0 0 0-5.643-5.643 5.644 5.644 0 0 0-5.643 5.643 5.644 5.644 0 0 0 5.643 5.643 5.644 5.644 0 0 0 5.643-5.643z"/></g><g><path fill="#fff" d="M77.938 203.472a5.642 5.642 0 1 0-11.285-.002 5.642 5.642 0 0 0 11.285.002z"/></g><g><path fill="#fff" d="M77.938 236.427a5.645 5.645 0 0 0-5.643-5.646 5.645 5.645 0 0 0 0 11.289 5.644 5.644 0 0 0 5.643-5.643z"/></g><g><path fill="#fff" d="M77.938 269.379a5.644 5.644 0 0 0-11.286 0 5.642 5.642 0 1 0 11.286 0z"/></g><g><path fill="#fff" d="M44.87 39.834c.073-.366.113-.747.113-1.136a5.64 5.64 0 0 0-5.643-5.643 5.642 5.642 0 1 0 3.155 10.32 5.636 5.636 0 0 0 2.375-3.541z"/></g><g><path fill="#fff" d="M44.983 71.653a5.64 5.64 0 0 0-5.643-5.643 5.642 5.642 0 1 0 0 11.286 5.642 5.642 0 0 0 5.643-5.643z"/></g><g><path fill="#fff" d="M44.983 104.606a5.642 5.642 0 1 0-11.285-.002 5.642 5.642 0 0 0 11.285.002z"/></g><g><path fill="#fff" d="M44.983 137.56a5.642 5.642 0 1 0-11.286 0 5.642 5.642 0 0 0 5.643 5.643 5.64 5.64 0 0 0 5.643-5.642z"/></g><g><path fill="#fff" d="M44.983 170.516a5.642 5.642 0 1 0-11.285 0 5.642 5.642 0 0 0 11.285 0z"/></g><g><path fill="#fff" d="M44.983 203.472a5.64 5.64 0 0 0-5.643-5.643 5.642 5.642 0 1 0 5.643 5.643z"/></g><g><path fill="#fff" d="M44.983 236.427a5.643 5.643 0 1 0-11.286 0 5.642 5.642 0 1 0 11.286 0z"/></g><g><path fill="#fff" d="M44.983 269.379a5.642 5.642 0 1 0-11.286 0 5.642 5.642 0 0 0 5.643 5.643 5.64 5.64 0 0 0 5.643-5.643z"/></g><g><path fill="#fff" d="M11.915 39.834a5.643 5.643 0 0 0-5.53-6.779 5.642 5.642 0 1 0 3.157 10.32c1.2-.81 2.071-2.07 2.373-3.541z"/></g><g><path fill="#fff" d="M12.03 71.653a5.643 5.643 0 0 0-5.646-5.643 5.642 5.642 0 1 0 0 11.286 5.645 5.645 0 0 0 5.646-5.643z"/></g><g><path fill="#fff" d="M12.03 104.606a5.645 5.645 0 0 0-11.288 0 5.642 5.642 0 0 0 5.642 5.642 5.643 5.643 0 0 0 5.646-5.642z"/></g><g><path fill="#fff" d="M12.03 137.56a5.645 5.645 0 0 0-11.288 0 5.642 5.642 0 0 0 5.642 5.643 5.643 5.643 0 0 0 5.646-5.642z"/></g><g><path fill="#fff" d="M12.03 170.516a5.645 5.645 0 0 0-11.288 0 5.644 5.644 0 0 0 11.288 0z"/></g><g><path fill="#fff" d="M12.03 203.472a5.643 5.643 0 0 0-5.646-5.643 5.642 5.642 0 1 0 0 11.285 5.645 5.645 0 0 0 5.646-5.642z"/></g><g><path fill="#fff" d="M12.03 236.427a5.645 5.645 0 1 0-11.287-.002 5.645 5.645 0 0 0 11.287.002z"/></g><g><path fill="#fff" d="M12.03 269.379a5.645 5.645 0 0 0-11.288 0 5.642 5.642 0 0 0 5.642 5.643 5.643 5.643 0 0 0 5.646-5.643z"/></g><g><path fill="#fff" d="M209.64 39.834a5.642 5.642 0 1 0 0 0z"/></g><g><path fill="#fff" d="M209.756 71.653a5.642 5.642 0 0 0-5.642-5.643 5.642 5.642 0 1 0 5.642 5.643z"/></g><g><path fill="#fff" d="M209.756 104.606a5.644 5.644 0 0 0-5.642-5.643 5.642 5.642 0 1 0 0 11.285 5.642 5.642 0 0 0 5.642-5.642z"/></g><g><path fill="#fff" d="M209.756 137.56a5.644 5.644 0 0 0-5.642-5.642 5.642 5.642 0 1 0 0 11.286 5.642 5.642 0 0 0 5.642-5.643z"/></g><g><path fill="#fff" d="M209.756 170.516a5.644 5.644 0 0 0-5.642-5.643 5.644 5.644 0 0 0-5.643 5.643 5.644 5.644 0 0 0 5.643 5.643 5.644 5.644 0 0 0 5.642-5.643z"/></g><g><path fill="#fff" d="M209.756 203.472a5.642 5.642 0 1 0-11.285-.001 5.642 5.642 0 0 0 11.285 0z"/></g><g><path fill="#fff" d="M209.756 236.427a5.645 5.645 0 0 0-5.642-5.646 5.645 5.645 0 0 0 0 11.289 5.644 5.644 0 0 0 5.642-5.643z"/></g><g><path fill="#fff" d="M209.756 269.379a5.644 5.644 0 0 0-11.285 0 5.642 5.642 0 1 0 11.285 0z"/></g><g><path fill="#fff" d="M176.688 39.834c.073-.366.113-.747.113-1.136a5.64 5.64 0 0 0-5.643-5.643 5.642 5.642 0 1 0 3.155 10.32 5.637 5.637 0 0 0 2.375-3.541z"/></g><g><path fill="#fff" d="M176.8 71.653a5.64 5.64 0 0 0-5.642-5.643 5.642 5.642 0 1 0 0 11.286 5.642 5.642 0 0 0 5.643-5.643z"/></g><g><path fill="#fff" d="M176.8 104.606a5.642 5.642 0 1 0-11.285 0 5.642 5.642 0 0 0 5.643 5.642 5.64 5.64 0 0 0 5.643-5.642z"/></g><g><path fill="#fff" d="M176.8 137.56a5.642 5.642 0 1 0-11.285 0 5.642 5.642 0 0 0 5.643 5.643 5.64 5.64 0 0 0 5.643-5.642z"/></g><g><path fill="#fff" d="M176.8 170.516a5.642 5.642 0 1 0-11.284-.001 5.642 5.642 0 0 0 11.285.001z"/></g><g><path fill="#fff" d="M176.8 203.472a5.64 5.64 0 0 0-5.642-5.643 5.642 5.642 0 1 0 0 11.285 5.642 5.642 0 0 0 5.643-5.642z"/></g><g><path fill="#fff" d="M176.8 236.427a5.643 5.643 0 1 0-11.285 0 5.642 5.642 0 1 0 11.286 0z"/></g><g><path fill="#fff" d="M176.8 269.379a5.642 5.642 0 1 0-11.285 0 5.642 5.642 0 0 0 5.643 5.643 5.64 5.64 0 0 0 5.643-5.643z"/></g></g></svg>