<svg xmlns="http://www.w3.org/2000/svg" width="290" height="492" viewBox="0 0 290 492"><g><g><path fill="#0e77ff" d="M113.488 105.943a6.063 6.063 0 0 0-1.675-3.151 6.078 6.078 0 0 0-3.151-1.675 6.096 6.096 0 0 0-5.48 1.675l-.003.002a6.102 6.102 0 0 0 .002 8.63 6.103 6.103 0 0 0 5.48 1.679 6.077 6.077 0 0 0 3.15-1.677l.002-.002a6.096 6.096 0 0 0 1.675-5.481z"/></g><g><path fill="#0e77ff" d="M138.694 131.15a6.07 6.07 0 0 0-1.675-3.152 6.071 6.071 0 0 0-3.15-1.675 6.096 6.096 0 0 0-5.481 1.675l-.003.002a6.102 6.102 0 0 0 .002 8.63 6.104 6.104 0 0 0 5.481 1.68 6.079 6.079 0 0 0 3.15-1.678l.002-.002a6.096 6.096 0 0 0 1.674-5.48z"/></g><g><path fill="#0e77ff" d="M163.9 156.356a6.07 6.07 0 0 0-1.674-3.152 6.063 6.063 0 0 0-3.152-1.674 6.097 6.097 0 0 0-5.48 1.674l-.002.003a6.102 6.102 0 0 0-1.677 3.149 6.103 6.103 0 0 0 1.679 5.48 6.108 6.108 0 0 0 5.48 1.68 6.102 6.102 0 0 0 3.15-1.677l.002-.003a6.096 6.096 0 0 0 1.674-5.48z"/></g><g><path fill="#0e77ff" d="M189.107 181.562a6.071 6.071 0 0 0-1.675-3.151 6.062 6.062 0 0 0-3.151-1.675 6.096 6.096 0 0 0-5.48 1.675l-.003.002a6.076 6.076 0 0 0-1.677 3.15 6.103 6.103 0 0 0 1.68 5.48 6.101 6.101 0 0 0 8.629.002l.002-.002a6.097 6.097 0 0 0 1.675-5.48z"/></g><g><path fill="#0e77ff" d="M214.313 206.768a6.079 6.079 0 0 0-1.675-3.151 6.08 6.08 0 0 0-3.153-1.677 6.096 6.096 0 0 0-5.48 1.675l-.003.002a6.103 6.103 0 0 0 .005 8.632 6.101 6.101 0 0 0 8.63.002l.002-.002a6.104 6.104 0 0 0 1.674-5.48z"/></g><g><path fill="#0e77ff" d="M239.517 231.972a6.063 6.063 0 0 0-1.675-3.151 6.071 6.071 0 0 0-3.151-1.675 6.096 6.096 0 0 0-5.48 1.675l-.003.002a6.102 6.102 0 0 0 .002 8.63 6.103 6.103 0 0 0 5.481 1.68 6.076 6.076 0 0 0 3.149-1.678l.002-.002a6.096 6.096 0 0 0 1.675-5.48z"/></g><g><path fill="#0e77ff" d="M264.723 257.179a6.072 6.072 0 0 0-1.674-3.152 6.07 6.07 0 0 0-3.152-1.674 6.096 6.096 0 0 0-5.48 1.674l-.002.003a6.102 6.102 0 0 0-1.678 3.149 6.103 6.103 0 0 0 1.68 5.48 6.102 6.102 0 0 0 5.48 1.68 6.101 6.101 0 0 0 3.15-1.677l.002-.003a6.097 6.097 0 0 0 1.674-5.48z"/></g><g><path fill="#0e77ff" d="M86.607 127.998a6.103 6.103 0 1 0-8.632 8.632 6.101 6.101 0 0 0 8.632 0 6.103 6.103 0 0 0 0-8.632z"/></g><g><path fill="#0e77ff" d="M111.813 153.204a6.103 6.103 0 1 0-8.632 8.632 6.103 6.103 0 1 0 8.632-8.632z"/></g><g><path fill="#0e77ff" d="M137.02 178.41a6.103 6.103 0 1 0-8.633 8.632 6.103 6.103 0 0 0 8.633-8.631z"/></g><g><path fill="#0e77ff" d="M162.226 203.617a6.103 6.103 0 0 0-8.632 0 6.101 6.101 0 0 0 0 8.632 6.103 6.103 0 1 0 8.632-8.632z"/></g><g><path fill="#0e77ff" d="M187.432 228.823a6.104 6.104 0 0 0-8.632 8.632 6.103 6.103 0 1 0 8.632-8.632z"/></g><g><path fill="#0e77ff" d="M212.636 254.027a6.103 6.103 0 1 0-8.632 8.632 6.1 6.1 0 0 0 8.632 0 6.103 6.103 0 0 0 0-8.632z"/></g><g><path fill="#0e77ff" d="M237.842 279.234a6.103 6.103 0 1 0-8.632 8.632 6.103 6.103 0 1 0 8.632-8.632z"/></g><g><path fill="#0e77ff" d="M61.4 153.204a6.105 6.105 0 0 0-8.631 0 6.103 6.103 0 1 0 8.632 0z"/></g><g><path fill="#0e77ff" d="M86.607 178.41a6.105 6.105 0 0 0-8.632 0 6.105 6.105 0 0 0 0 8.633 6.105 6.105 0 0 0 8.632 0 6.105 6.105 0 0 0 0-8.632z"/></g><g><path fill="#0e77ff" d="M111.813 203.617a6.105 6.105 0 0 0-8.632 0 6.105 6.105 0 0 0 0 8.632 6.105 6.105 0 0 0 8.632 0 6.105 6.105 0 0 0 0-8.632z"/></g><g><path fill="#0e77ff" d="M137.02 228.823a6.103 6.103 0 0 0-8.632 0 6.103 6.103 0 1 0 8.632 8.632 6.105 6.105 0 0 0 0-8.632z"/></g><g><path fill="#0e77ff" d="M162.226 254.03a6.106 6.106 0 0 0-8.634-.003 6.106 6.106 0 0 0 8.634 8.635 6.105 6.105 0 0 0 0-8.632z"/></g><g><path fill="#0e77ff" d="M187.43 279.234a6.105 6.105 0 0 0-8.632 0 6.103 6.103 0 1 0 8.632 8.632 6.103 6.103 0 0 0 0-8.632z"/></g><g><path fill="#0e77ff" d="M212.636 304.44a6.105 6.105 0 0 0-8.632 0 6.105 6.105 0 0 0 0 8.632 6.105 6.105 0 0 0 8.632 0 6.105 6.105 0 0 0 0-8.632z"/></g><g><path fill="#0e77ff" d="M36.194 178.41a6.103 6.103 0 1 0-8.632 8.632 6.103 6.103 0 0 0 8.632 0 6.101 6.101 0 0 0 0-8.631z"/></g><g><path fill="#0e77ff" d="M61.4 203.617a6.103 6.103 0 1 0-8.631 8.632 6.103 6.103 0 1 0 8.632-8.632z"/></g><g><path fill="#0e77ff" d="M86.607 228.823a6.103 6.103 0 1 0-8.632 8.631 6.103 6.103 0 0 0 8.632-8.63z"/></g><g><path fill="#0e77ff" d="M111.813 254.03a6.101 6.101 0 0 0-8.632 0 6.103 6.103 0 1 0 8.632 8.632 6.103 6.103 0 0 0 0-8.632z"/></g><g><path fill="#0e77ff" d="M137.02 279.236a6.104 6.104 0 1 0-8.632 8.632 6.103 6.103 0 1 0 8.632-8.632z"/></g><g><path fill="#0e77ff" d="M162.223 304.44a6.103 6.103 0 1 0-8.632 8.632 6.103 6.103 0 0 0 8.632 0 6.1 6.1 0 0 0 0-8.632z"/></g><g><path fill="#0e77ff" d="M187.43 329.646a6.103 6.103 0 1 0-8.632 8.632 6.103 6.103 0 1 0 8.632-8.632z"/></g><g><path fill="#0e77ff" d="M10.99 203.615a6.106 6.106 0 0 0-8.634 8.634 6.103 6.103 0 0 0 8.632 0 6.104 6.104 0 0 0 .002-8.634z"/></g><g><path fill="#0e77ff" d="M36.197 228.821a6.106 6.106 0 0 0-8.635 8.634 6.105 6.105 0 0 0 8.635-8.634z"/></g><g><path fill="#0e77ff" d="M61.403 254.027a6.106 6.106 0 0 0-8.634 8.635 6.105 6.105 0 0 0 8.634-8.635z"/></g><g><path fill="#0e77ff" d="M86.61 279.234a6.104 6.104 0 0 0-8.635.002 6.103 6.103 0 1 0 8.632 8.632 6.106 6.106 0 0 0 .002-8.634z"/></g><g><path fill="#0e77ff" d="M111.815 304.44a6.106 6.106 0 1 0-8.634 8.632 6.106 6.106 0 0 0 8.634-8.632z"/></g><g><path fill="#0e77ff" d="M137.02 329.644a6.106 6.106 0 0 0-8.635 8.634 6.103 6.103 0 0 0 8.632 0 6.104 6.104 0 0 0 .002-8.634z"/></g><g><path fill="#0e77ff" d="M162.226 354.85a6.106 6.106 0 0 0-8.634 8.634 6.105 6.105 0 0 0 8.634-8.634z"/></g><g><path fill="#0e77ff" d="M212.636 1.969a6.103 6.103 0 1 0-8.632 8.632 6.101 6.101 0 0 0 8.632 0 6.103 6.103 0 0 0 0-8.632z"/></g><g><path fill="#0e77ff" d="M237.842 27.175a6.103 6.103 0 1 0-8.632 8.632 6.103 6.103 0 1 0 8.632-8.632z"/></g><g><path fill="#0e77ff" d="M263.049 52.382a6.103 6.103 0 1 0-8.633 8.632 6.103 6.103 0 0 0 8.633-8.632z"/></g><g><path fill="#0e77ff" d="M288.255 77.588a6.103 6.103 0 0 0-8.632 0 6.101 6.101 0 0 0 0 8.632 6.103 6.103 0 1 0 8.632-8.632z"/></g><g><path fill="#0e77ff" d="M187.43 27.175a6.105 6.105 0 0 0-8.632 0 6.103 6.103 0 1 0 8.632 0z"/></g><g><path fill="#0e77ff" d="M212.636 52.381a6.105 6.105 0 0 0-8.632 0 6.105 6.105 0 0 0 0 8.632 6.105 6.105 0 0 0 8.632 0 6.105 6.105 0 0 0 0-8.632z"/></g><g><path fill="#0e77ff" d="M237.842 77.588a6.105 6.105 0 0 0-8.632 0 6.105 6.105 0 0 0 0 8.632 6.105 6.105 0 0 0 8.632 0 6.105 6.105 0 0 0 0-8.632z"/></g><g><path fill="#0e77ff" d="M263.049 102.794a6.103 6.103 0 0 0-8.632 0 6.103 6.103 0 1 0 8.632 0z"/></g><g><path fill="#0e77ff" d="M288.255 128a6.106 6.106 0 0 0-8.634-.002 6.106 6.106 0 0 0 8.634 8.634 6.106 6.106 0 0 0 0-8.632z"/></g><g><path fill="#0e77ff" d="M162.223 52.381a6.105 6.105 0 0 0-8.631 0 6.103 6.103 0 1 0 8.632 0z"/></g><g><path fill="#0e77ff" d="M187.43 77.588a6.105 6.105 0 0 0-8.632 0 6.105 6.105 0 0 0 0 8.632 6.105 6.105 0 0 0 8.632 0 6.105 6.105 0 0 0 0-8.632z"/></g><g><path fill="#0e77ff" d="M212.636 102.794a6.105 6.105 0 0 0-8.632 0 6.105 6.105 0 0 0 0 8.632 6.105 6.105 0 0 0 8.632 0 6.105 6.105 0 0 0 0-8.632z"/></g><g><path fill="#0e77ff" d="M237.842 128a6.103 6.103 0 0 0-8.631 0 6.103 6.103 0 1 0 8.631 8.632 6.105 6.105 0 0 0 0-8.632z"/></g><g><path fill="#0e77ff" d="M263.049 153.207a6.106 6.106 0 0 0-8.635-.003 6.106 6.106 0 0 0 8.635 8.635 6.105 6.105 0 0 0 0-8.632z"/></g><g><path fill="#0e77ff" d="M288.253 178.41a6.105 6.105 0 0 0-8.632 0 6.103 6.103 0 1 0 8.632 8.632 6.103 6.103 0 0 0 0-8.631z"/></g><g><path fill="#0e77ff" d="M137.017 77.588a6.103 6.103 0 1 0-8.632 8.632 6.103 6.103 0 0 0 8.632 0 6.101 6.101 0 0 0 0-8.632z"/></g><g><path fill="#0e77ff" d="M162.223 102.794a6.103 6.103 0 1 0-8.631 8.632 6.103 6.103 0 1 0 8.632-8.632z"/></g><g><path fill="#0e77ff" d="M187.43 128a6.103 6.103 0 1 0 0 8.632 6.103 6.103 0 0 0 0-8.632z"/></g><g><path fill="#0e77ff" d="M212.636 153.207a6.1 6.1 0 0 0-8.632 0 6.103 6.103 0 1 0 8.632 8.632 6.103 6.103 0 0 0 0-8.632z"/></g><g><path fill="#0e77ff" d="M237.842 178.413a6.104 6.104 0 1 0-8.632 8.632 6.103 6.103 0 1 0 8.632-8.632z"/></g><g><path fill="#0e77ff" d="M263.046 203.617a6.103 6.103 0 1 0-8.632 8.632 6.103 6.103 0 0 0 8.632 0 6.1 6.1 0 0 0 0-8.632z"/></g><g><path fill="#0e77ff" d="M288.253 228.823a6.103 6.103 0 0 0-8.632 0 6.105 6.105 0 0 0 0 8.632 6.103 6.103 0 1 0 8.632-8.632z"/></g><g><path fill="#0e77ff" d="M289.93 284.714a6.12 6.12 0 0 0-.895-4.523 6.07 6.07 0 0 0-3.932-2.632 6.096 6.096 0 0 0-5.48 1.675l-.002.002a6.076 6.076 0 0 0-1.677 3.15 6.102 6.102 0 0 0 1.679 5.48c.298.298.617.56.955.782a6.105 6.105 0 0 0 7.675-.78l.002-.003a6.079 6.079 0 0 0 1.675-3.15z"/></g><g><path fill="#0e77ff" d="M263.83 305.397a6.103 6.103 0 0 0-9.412-.957 6.101 6.101 0 0 0-.001 8.632c.298.298.62.559.955.783a6.097 6.097 0 0 0 4.525.892 6.07 6.07 0 0 0 3.152-1.675 6.105 6.105 0 0 0 .78-7.674z"/></g><g><path fill="#0e77ff" d="M288.255 329.646a6.103 6.103 0 0 0-8.632 0 6.1 6.1 0 0 0 0 8.632 6.103 6.103 0 1 0 8.632-8.632z"/></g><g><path fill="#0e77ff" d="M238.623 330.604a6.103 6.103 0 0 0-9.412-.957 6.103 6.103 0 1 0 10.306 5.48 6.093 6.093 0 0 0-.894-4.523z"/></g><g><path fill="#0e77ff" d="M263.049 354.853a6.103 6.103 0 0 0-8.632 0 6.103 6.103 0 1 0 8.632 8.631 6.105 6.105 0 0 0 0-8.631z"/></g><g><path fill="#0e77ff" d="M288.253 380.057a6.105 6.105 0 0 0-8.632 0 6.103 6.103 0 1 0 8.632 8.632 6.103 6.103 0 0 0 0-8.632z"/></g><g><path fill="#0e77ff" d="M213.419 355.808a6.263 6.263 0 0 0-.783-.956 6.101 6.101 0 0 0-8.632 0 6.103 6.103 0 1 0 8.632 8.632 6.063 6.063 0 0 0 1.675-3.15c.3-1.54.002-3.17-.892-4.526z"/></g><g><path fill="#0e77ff" d="M237.842 380.059a6.1 6.1 0 0 0-8.631 0 6.103 6.103 0 1 0 8.631 8.632 6.103 6.103 0 0 0 0-8.632z"/></g><g><path fill="#0e77ff" d="M263.047 405.263a6.103 6.103 0 1 0-8.632 8.632 6.103 6.103 0 0 0 8.631 0 6.1 6.1 0 0 0 0-8.632z"/></g><g><path fill="#0e77ff" d="M288.253 430.47a6.103 6.103 0 1 0-8.632 8.631 6.103 6.103 0 0 0 8.632 0 6.101 6.101 0 0 0 0-8.632z"/></g><g><path fill="#0e77ff" d="M188.213 381.014a6.104 6.104 0 0 0-9.415-.955 6.103 6.103 0 1 0 10.309 5.478 6.106 6.106 0 0 0-.894-4.523z"/></g><g><path fill="#0e77ff" d="M212.638 405.263a6.104 6.104 0 0 0-8.634.002 6.103 6.103 0 1 0 8.632 8.632 6.106 6.106 0 0 0 .002-8.634z"/></g><g><path fill="#0e77ff" d="M237.843 430.467a6.106 6.106 0 0 0-8.635 8.634 6.103 6.103 0 0 0 8.632 0 6.104 6.104 0 0 0 .003-8.634z"/></g><g><path fill="#0e77ff" d="M263.049 455.673a6.106 6.106 0 0 0-8.635 8.634 6.103 6.103 0 0 0 8.632 0 6.104 6.104 0 0 0 .003-8.634z"/></g><g><path fill="#0e77ff" d="M288.255 480.88a6.106 6.106 0 0 0-8.634 8.634 6.105 6.105 0 0 0 8.634-8.634z"/></g></g></svg>